<mxfile host="app.diagrams.net" modified="2023-06-09T07:28:22.214Z" agent="Mozilla/5.0 (X11; Linux x86_64) AppleWebKit/537.36 (KHTML, like Gecko) Chrome/114.0.0.0 Safari/537.36" version="21.3.8" etag="BVXc9IN8ddrSvKeF7wvM" type="github">
  <diagram name="Page-1" id="pX5-GsVtME2W4EOsjqLb">
    <mxGraphModel>
      <root>
        <mxCell id="0" />
        <mxCell id="1" parent="0" />
      </root>
    </mxGraphModel>
  </diagram>
</mxfile>
